<?xml version="1.0" encoding="UTF-8" standalone="no"?>
<!-- Created with Inkscape (http://www.inkscape.org/) -->

<svg
   viewBox="0 0 500 500"
   version="1.1"
   id="svg1"
   xml:space="preserve"
   sodipodi:docname="ias_logo_opaque.svg"
   inkscape:version="1.4.2 (f4327f4, 2025-05-13)"
   xmlns:inkscape="http://www.inkscape.org/namespaces/inkscape"
   xmlns:sodipodi="http://sodipodi.sourceforge.net/DTD/sodipodi-0.dtd"
   xmlns="http://www.w3.org/2000/svg"
   xmlns:svg="http://www.w3.org/2000/svg"><sodipodi:namedview
     id="namedview1"
     pagecolor="#ffffff"
     bordercolor="#000000"
     borderopacity="0.25"
     inkscape:showpageshadow="2"
     inkscape:pageopacity="0.0"
     inkscape:pagecheckerboard="0"
     inkscape:deskcolor="#d1d1d1"
     inkscape:zoom="1.546"
     inkscape:cx="257.43855"
     inkscape:cy="299.15912"
     inkscape:window-width="1920"
     inkscape:window-height="991"
     inkscape:window-x="1911"
     inkscape:window-y="-9"
     inkscape:window-maximized="1"
     inkscape:current-layer="svg1" /><defs
     id="defs1"><style
       type="text/css"
       id="style1">
   <![CDATA[
    .fil0 {fill:#48897B;fill-rule:nonzero}
   ]]>
  </style></defs><g
     id="layer1"
     style="opacity:1"
     transform="translate(1.3098688,17.437183)"><g
       style="clip-rule:evenodd;fill-rule:evenodd;image-rendering:optimizeQuality;shape-rendering:geometricPrecision;text-rendering:geometricPrecision"
       id="g1"
       transform="matrix(0.14899494,0,0,0.14899494,12.523815,12.52551)"><g
         id="Layer_x0020_1"
         inkscape:label="Layer 1"
         inkscape:groupmode="layer">
  <metadata
   id="CorelCorpID_0Corel-Layer" />
  <path
   class="fil0"
   d="m 594.73534,631.14133 v 323.13348 51.96509 H 2.140625e-5 V 954.27481 631.14133 582.43736 H 594.73534 Z M 1311.1802,1674.6965 1085.3091,2605.1761 H 1057.4717 594.73534 470.62953 465.06204 253.14486 2.140625e-5 V 2556.3306 2448.3593 1230.1222 H 594.73534 V 2075.175 L 959.93481,582.36646 h 700.79959 l 125.9381,518.80004 233.6939,962.8072 h 48.3456 257.162 151.3794 c 26.8508,-1.3468 49.6846,-8.9325 68.4307,-22.8986 20.7194,-15.384 31.0793,-37.6446 31.0793,-66.6401 0,-34.4543 -14.87,-63.4498 -44.6103,-86.9865 -29.7403,-23.6076 -76.1831,-50.7599 -139.1876,-81.5987 -54.0539,-25.3799 -105.4297,-53.9501 -154.1279,-85.6396 -48.6274,-31.6894 -91.8988,-70.2556 -129.7436,-115.5567 -37.8448,-45.301 -68.008,-98.3295 -90.5599,-159.0854 -22.5519,-60.7559 -33.7574,-131.8622 -33.7574,-213.4609 0,-117.8253 20.7195,-217.9981 62.1587,-300.44747 41.439,-82.44938 94.1539,-149.58571 158.145,-201.19633 63.9909,-51.6815 135.1702,-89.25517 213.538,-112.86277 78.3677,-23.53671 155.4671,-35.37595 231.1568,-35.37595 115.3669,0 218.4714,18.14879 309.5245,54.37547 90.9829,36.22668 167.1659,83.37099 228.4083,141.43292 l -289.2279,443.22743 c -30.6566,-30.8388 -66.6692,-56.6441 -108.108,-77.4868 -41.4391,-20.8428 -81.1163,-31.2642 -118.9612,-31.2642 -28.8239,0 -54.9702,7.2312 -78.4384,21.7644 -23.3973,14.5332 -35.1668,39.9132 -35.1668,76.1398 0,28.9956 12.1922,52.5323 36.506,70.6811 24.3137,18.1487 71.6023,44.4503 141.9358,78.9046 39.6773,19.9211 83.7942,44.8757 132.4218,74.7929 48.698,29.9171 94.6477,67.987 137.8485,114.2097 43.2713,46.2227 79.7068,102.016 109.4469,167.2382 29.7405,65.2931 44.6105,142.2836 44.6105,231.1135 0,116.0529 -18.8871,215.7295 -56.732,299.1005 -37.8448,83.371 -88.3047,151.3581 -151.3795,203.9612 -63.0748,52.5321 -134.677,91.5237 -214.8772,116.9036 -63.1451,19.9921 -127.1362,32.1147 -191.9024,36.3684 v 1.6305 h -39.5363 c -4.3693,0.07 -8.8093,0.1427 -13.1786,0.1427 -5.0743,0 -10.078,0 -15.1521,-0.1427 h -326.0155 -161.8803 -3.5942 -227.7034 -220.797 -0.7752 l -225.8713,-930.4796 z"
   id="path1"
   style="stroke-width:7.06839" />
 </g></g></g></svg>
